






Complete name                    : Pokemon Black and White -34- Ash and Trip's Third Battle! 720p by salman sk.m4v
Format                           : MPEG-4
Format profile                   : Base Media / Version 2
Codec ID                         : mp42
File size                        : 100 MiB
Duration                         : 21mn 19s
Overall bit rate                 : 658 Kbps

ID                               : 1
Format                           : AVC
Format/Info                      : Advanced Video Codec
Format profile                   : Main@L3.1
Format settings, CABAC           : Yes
Format settings, ReFrames        : 4 frames
Codec ID                         : avc1
Codec ID/Info                    : Advanced Video Coding
Duration                         : 21mn 19s
Bit rate mode                    : Variable
Bit rate                         : 491 Kbps
Width                            : 1 280 pixels
Height                           : 720 pixels
Display aspect ratio             : 16:9
Frame rate mode                  : Variable
Frame rate                       : 29.926 fps
Minimum frame rate               : 9.901 fps
Maximum frame rate               : 30.303 fps
Color space                      : YUV
Chroma subsampling               : 4:2:0
Bit depth                        : 8 bits
Scan type                        : Progressive
Bits/(Pixel*Frame)               : 0.018
Stream size                      : 74.9 MiB (75%)
Writing library                  : x264 core 112


ID                               : 2
Format                           : AAC
Format/Info                      : Advanced Audio Codec
Format version                   : Version 4
Format profile                   : LC
Format settings, SBR             : No
Codec ID                         : 40
Duration                         : 21mn 19s
Bit rate mode                    : Variable
Bit rate                         : 160 Kbps
Maximum bit rate                 : 195 Kbps
Channel(s)                       : 2 channels
Channel positions                : Front: L R
Sampling rate                    : 48.0 KHz
Stream size                      : 24.4 MiB (24%)
Language                         : English